<?xml version="1.0" standalone="no"?>
<!DOCTYPE svg PUBLIC "-//W3C//DTD SVG 20010904//EN"
 "http://www.w3.org/TR/2001/REC-SVG-20010904/DTD/svg10.dtd">
<svg version="1.0" xmlns="http://www.w3.org/2000/svg"
 width="512.000000pt" height="512.000000pt" viewBox="0 0 512.000000 512.000000"
 preserveAspectRatio="xMidYMid meet">

<g transform="translate(0.000000,512.000000) scale(0.100000,-0.100000)"
fill="#f8f8f8" stroke="none">
<path d="M3870 4405 l0 -166 83 3 82 3 3 163 2 162 -85 0 -85 0 0 -165z"/>
<path d="M3140 4235 l-54 -55 114 -115 115 -115 57 57 58 58 -112 112 c-62 62
-115 113 -118 113 -3 0 -30 -25 -60 -55z"/>
<path d="M4590 4175 l-115 -115 58 -57 57 -58 117 117 118 118 -55 55 c-30 30
-57 55 -60 55 -3 0 -57 -52 -120 -115z"/>
<path d="M3815 4064 c-188 -41 -360 -175 -444 -345 l-43 -86 -67 27 c-466 190
-1036 73 -1404 -288 -43 -43 -94 -98 -114 -123 l-35 -46 -137 5 c-165 6 -256
-13 -396 -82 -235 -117 -401 -347 -433 -601 l-7 -59 -70 -26 c-157 -59 -266
-131 -376 -247 -116 -123 -200 -277 -241 -439 -18 -72 -22 -117 -22 -234 0
-160 18 -250 75 -384 97 -228 322 -441 555 -525 178 -65 82 -62 1899 -59
l1650 3 90 28 c180 56 307 131 429 253 123 122 199 251 252 429 25 82 28 105
28 255 1 179 -7 219 -66 374 -110 284 -401 527 -703 583 -120 23 -125 26 -125
70 0 21 -9 81 -20 133 -10 52 -18 95 -17 96 1 1 38 14 82 29 171 57 302 170
380 328 71 143 88 265 60 413 -35 183 -152 348 -315 444 -130 77 -318 107
-465 74z m294 -176 c130 -42 252 -157 302 -285 33 -87 38 -230 10 -321 -26
-87 -89 -182 -155 -234 -61 -49 -155 -95 -212 -104 l-42 -6 -32 66 c-82 174
-233 354 -400 480 l-98 74 22 54 c48 117 124 198 241 254 116 56 235 63 364
22z m-1081 -327 c146 -32 283 -91 417 -180 142 -94 306 -283 389 -449 70 -138
116 -338 116 -498 l0 -94 48 0 c237 0 443 -82 603 -240 222 -219 299 -522 208
-817 -43 -139 -112 -246 -228 -355 -63 -60 -103 -87 -183 -126 -194 -95 -22
-87 -1883 -87 -1535 0 -1644 1 -1704 18 -152 42 -257 98 -363 196 -173 159
-259 356 -260 591 -1 182 48 333 157 485 113 157 302 278 493 315 l62 13 0 74
c0 99 24 202 68 293 51 105 177 231 283 283 139 68 288 84 438 46 45 -11 84
-19 85 -17 2 1 23 32 47 68 108 161 320 337 493 409 96 40 233 79 321 90 98
14 289 5 393 -18z"/>
<path d="M1441 2914 c-205 -55 -381 -267 -381 -461 l0 -43 80 0 c78 0 80 1 80
24 0 13 9 53 20 89 38 122 161 224 291 242 l49 7 0 79 0 79 -42 -1 c-24 0 -67
-7 -97 -15z"/>
<path d="M4777 3503 c-4 -3 -7 -42 -7 -85 l0 -78 165 0 165 0 0 85 0 85 -158
0 c-87 0 -162 -3 -165 -7z"/>
<path d="M4530 2845 l-55 -55 118 -118 117 -117 57 58 58 57 -115 115 c-63 63
-117 115 -120 115 -3 0 -30 -25 -60 -55z"/>
</g>
</svg>
